# xmcd
# 
# Track frame offsets:
#     150
#     16374
#     34402
#     51666
#     71859
#     85630
#     97567
#     113683
#     129711
#     147249
#     162853
#     175854
#     191821
#     209586
# 
# Disc length: 3046
# 
# Revision: 2
# Processed by: cddbd v1.5.2PL0 Copyright (c) Steve Scherf et al.
# Submitted via: fre:ac v1.0.27
# 
DISCID=c80be40e
DTITLE=пасвакгс теяфгс - та йакутеяа
DYEAR=2005
DGENRE=Folk
TTITLE0=теяфгс - пакиойаияос
TTITLE1=теяфгс - тупийг диадийасиа
TTITLE2=теяфгс - ти се моиафеи
TTITLE3=теяфгс - дысе лоу лиа еуйаияиа
TTITLE4=теяфгс - ломилос йатоийос
TTITLE5=теяфгс - жамтасиа лоу пкамеутяа
TTITLE6=теяфгс - астатос
TTITLE7=теяфгс - де ле йатакабес поте
TTITLE8=теяфгс - то етеяом соу глису
TTITLE9=теяфгс - ха' хека ма' соум еды
TTITLE10=теяфгс - лика лоу стом емийо
TTITLE11=теяфгс - яытгса та латиа лоу
TTITLE12=теяфгс - дийаиыла соу
TTITLE13=теяфгс - фгты та паяакоца
EXTD=
EXTT0=
EXTT1=
EXTT2=
EXTT3=
EXTT4=
EXTT5=
EXTT6=
EXTT7=
EXTT8=
EXTT9=
EXTT10=
EXTT11=
EXTT12=
EXTT13=
PLAYORDER=
